# xmcd
#
# Track frame offsets: 
#        150
#        20586
#        37132
#        57569
#
# Disc length: 984 seconds
#
# Revision: 2
# Processed by: cddbd v1.5.2PL0 Copyright (c) Steve Scherf et al.
# Submitted via: ExactAudioCopy v1.0b3
#
DISCID=3503d604
DTITLE=みかくにんぐッ![夜ノ森小紅(CV:照井春佳)、夜ノ森紅緒(CV:松井恵理子)、三峰真白(CV:吉田有里)] - とまどい→レ
DTITLE=シピ(TVアニメ「未確認で進行形」OP) 
DYEAR=2014
DGENRE=JPop
TTITLE0=とまどい→レシピ
TTITLE1=放課後ばけーしょん
TTITLE2=とまどい→レシピ(off vocal ver.)
TTITLE3=放課後ばけーしょん(off vocal ver.)
EXTD=
EXTT0=
EXTT1=
EXTT2=
EXTT3=
PLAYORDER=
